<svg width="52" height="62" viewBox="0 0 52 62" fill="none" xmlns="http://www.w3.org/2000/svg">
<g filter="url(#filter0_i_2559_10961)">
<path fill-rule="evenodd" clip-rule="evenodd" d="M11.2375 0H40.7625V2.68408H11.2375V0ZM8.55347 2.68408L8.55347 5.36816V8.05225L8.55347 5.36816H5.86938L5.86939 8.05225L3.1853 8.05225L3.1853 10.7363H0.501221V48.3135L3.1853 48.3135V53.6816L5.86939 53.6816L5.86938 56.3657H8.55347V59.0498H13.9216V61.7339H38.0784L38.0784 59.0498H43.4465V56.3658H38.0784L38.0784 56.3657L43.4465 56.3657H46.1306V53.6816H48.8147V48.3135L48.8147 48.3135L51.4988 48.3135V10.7363H48.8147V8.05225L46.1306 8.05225L46.1306 8.05225V5.36816L43.4466 5.36816L43.4465 2.68408H38.0784H13.9216H8.55347ZM38.0784 59.0498H13.9216V56.3657H8.55347V53.6816H5.86939L8.55347 53.6816L8.55347 56.3657H13.9216L13.9216 59.0498L38.0784 59.0498Z" fill="#404349"/>
</g>
<rect x="40.7625" y="18.7886" width="2.68408" height="24.1567" fill="#111113"/>
<rect x="8.55347" y="18.7886" width="2.68408" height="24.1567" fill="#111113"/>
<rect x="11.2375" y="16.1045" width="2.68408" height="2.68408" fill="#111113"/>
<rect x="11.2375" y="42.9453" width="2.68408" height="2.68408" fill="#111113"/>
<rect x="38.0784" y="42.9453" width="2.68408" height="2.68408" fill="#111113"/>
<rect x="11.2375" y="18.7886" width="2.68408" height="5.36816" fill="#111113"/>
<rect x="16.6057" y="48.3135" width="18.7886" height="2.68408" fill="#111113"/>
<rect x="16.6057" y="10.7363" width="18.7886" height="2.68408" fill="#111113"/>
<rect x="13.9216" y="13.4204" width="2.68408" height="2.68408" fill="#111113"/>
<rect x="35.3943" y="13.4204" width="2.68408" height="2.68408" fill="#111113"/>
<rect x="13.9216" y="45.6294" width="5.36817" height="2.68408" fill="#111113"/>
<rect x="13.9216" y="16.1045" width="24.1568" height="2.68408" fill="#111113"/>
<rect x="32.7102" y="45.6294" width="5.36817" height="2.68408" fill="#111113"/>
<rect x="21.9739" y="42.9453" width="8.05225" height="2.68408" fill="#111113"/>
<rect x="21.9739" y="40.2612" width="8.05225" height="2.68408" fill="#111113"/>
<rect x="30.0261" y="24.1567" width="8.05225" height="2.68408" fill="#111113"/>
<rect x="13.9216" y="24.1567" width="8.05225" height="2.68408" fill="#111113"/>
<rect x="38.0784" y="18.7886" width="2.68408" height="5.36816" fill="#111113"/>
<rect x="30.0261" y="26.8408" width="2.68408" height="13.4204" fill="#111113"/>
<rect x="19.2898" y="26.8408" width="2.68408" height="13.4204" fill="#111113"/>
<rect x="38.0784" y="16.1045" width="2.68408" height="2.68408" fill="#111113"/>
<rect x="11.2375" y="24.1567" width="2.68408" height="2.68408" fill="#111113"/>
<defs>
<filter id="filter0_i_2559_10961" x="0.501221" y="0" width="50.9976" height="65.7339" filterUnits="userSpaceOnUse" color-interpolation-filters="sRGB">
<feFlood flood-opacity="0" result="BackgroundImageFix"/>
<feBlend mode="normal" in="SourceGraphic" in2="BackgroundImageFix" result="shape"/>
<feColorMatrix in="SourceAlpha" type="matrix" values="0 0 0 0 0 0 0 0 0 0 0 0 0 0 0 0 0 0 127 0" result="hardAlpha"/>
<feOffset dy="4"/>
<feGaussianBlur stdDeviation="2"/>
<feComposite in2="hardAlpha" operator="arithmetic" k2="-1" k3="1"/>
<feColorMatrix type="matrix" values="0 0 0 0 0 0 0 0 0 0 0 0 0 0 0 0 0 0 0.25 0"/>
<feBlend mode="normal" in2="shape" result="effect1_innerShadow_2559_10961"/>
</filter>
</defs>
</svg>
